<?xml version="1.0" encoding="UTF-8" standalone="no"?>
<svg
   version="1.1"
   x="0px"
   y="0px"
   width="500px"
   height="100px"
   viewBox="0 0 500 100"
   id="svg163"
   sodipodi:docname="a71289fa6cf50bc0821b.svg"
   inkscape:version="1.1.2 (b8e25be833, 2022-02-05)"
   xmlns:inkscape="http://www.inkscape.org/namespaces/inkscape"
   xmlns:sodipodi="http://sodipodi.sourceforge.net/DTD/sodipodi-0.dtd"
   xmlns="http://www.w3.org/2000/svg"
   xmlns:svg="http://www.w3.org/2000/svg">
  <defs
     id="defs167" />
  <sodipodi:namedview
     id="namedview165"
     pagecolor="#ffffff"
     bordercolor="#666666"
     borderopacity="1.0"
     inkscape:pageshadow="2"
     inkscape:pageopacity="0.0"
     inkscape:pagecheckerboard="0"
     showgrid="false"
     inkscape:zoom="2.444"
     inkscape:cx="250.20458"
     inkscape:cy="49.918167"
     inkscape:window-width="2560"
     inkscape:window-height="1377"
     inkscape:window-x="-8"
     inkscape:window-y="-8"
     inkscape:window-maximized="1"
     inkscape:current-layer="svg163" />
  <style
     type="text/css"
     id="style141">
	    path, rect { fill: #FFFF; }
    </style>
  <path
     d="M 55,24.8 H 39.5 v 54.6 c 0,7 -2.4,9.7 -5.8,9.7 -2.8,0 -5.3,-0.5 -7.5,-1.1 l -1.6,10.6 c 3.1,0.9 6.9,1.5 11.8,1.5 12.8,0 18.5,-7.6 18.5,-20.2 V 24.8 Z M 39.5,16.4 H 55.1 V 3.1 H 39.5 Z"
     id="path143" />
  <path
     d="m 75.6,43.3 c -0.1,-0.9 -0.2,-1.8 -0.2,-2.5 0,-4.5 3.1,-6.6 9.6,-6.6 6.5,0 9.4,3.2 9.4,7.9 v 4.2 c -26.4,0.5 -35.2,7 -35.2,18.1 0,9.6 6.8,14.2 17.1,14.2 11.4,0 17.9,-6.2 19.7,-8.4 h 0.6 c 0.2,4 1.9,8.4 9.8,8.4 3.1,0 6.5,-0.6 8.8,-1.4 l -0.6,-10.3 c -0.9,0.3 -1.8,0.4 -2.7,0.4 -1.5,0 -2.4,-0.9 -2.4,-3 V 42.8 c 0,-9.9 -5.1,-19.2 -23.8,-19.2 -16.7,0 -24.3,6.5 -24.3,16.6 0,1.2 0.1,2.7 0.3,3.9 z m -1.5,19.1 c 0,-4.5 4.4,-7.7 20.2,-8.1 V 62 c -3,3.4 -8.1,5.8 -13,5.8 -4.6,0.1 -7.2,-1.5 -7.2,-5.4 z"
     id="path145" />
  <path
     d="m 115,51.2 c 0,17.3 9.3,27.3 27.8,27.3 22.1,0 24.3,-13.1 24.3,-18.4 0,-0.8 0,-1.7 -0.2,-2.8 l -15.4,-0.2 c 0.2,0.6 0.2,1.3 0.2,1.7 0,3.2 -1.7,8.6 -9.4,8.6 -7.7,0 -11.5,-5.7 -11.5,-16.3 0,-12.4 4.3,-16.5 11.5,-16.5 7.6,0 9.4,5.5 9.4,8.6 0,0.5 0,1.2 -0.2,1.8 l 15.4,-0.3 c 0.2,-1.2 0.2,-1.9 0.2,-2.8 0,-5.7 -2.3,-18.4 -24.3,-18.4 C 123.4,23.7 115,36.3 115,51.2 Z"
     id="path147" />
  <path
     d="m 171.6,77.5 h 15.5 V 61.2 c 1.9,-1.2 6.2,-4.1 8.3,-5.7 2.4,2.6 12.2,20 14.4,22 h 16.7 v -1.8 c -2.9,-2.4 -16.8,-25.2 -19.6,-28.5 5.2,-4.4 13,-12.3 18.5,-20.6 v -1.8 h -16.9 c -5.2,8.3 -14,16.6 -21.4,21.6 V 0 h -15.5 z"
     id="path149" />
  <path
     d="m 228.8,77.5 h 11.6 l 2.3,-5.8 h 0.6 c 2.5,2.7 7.1,6.9 16.5,6.9 11.8,0 22.5,-7.7 22.5,-27.6 0,-20 -11,-27.3 -22.5,-27.3 -7.3,0 -12.3,3 -14.9,6 h -0.6 V 0 h -15.5 z m 15.5,-38.1 c 2.4,-2.7 6.1,-4.6 9.8,-4.6 6.9,0 12.4,3.6 12.4,16.3 0,12.6 -5.2,16.5 -12.4,16.5 -4.4,0 -7.9,-2 -9.8,-4.5 z"
     id="path151" />
  <path
     d="m 283.9,51.2 c 0,16.6 9,27.3 27.8,27.3 18.5,0 27.8,-10.8 27.8,-27.3 0,-16.7 -9.3,-27.6 -27.8,-27.6 -18.8,0.1 -27.8,10.9 -27.8,27.6 z m 27.7,16.3 c -7.4,0 -12.1,-4.2 -12.1,-16.3 0,-12.3 4.6,-16.5 12.1,-16.5 7.2,0 11.9,4.2 11.9,16.5 0.1,12.1 -4.6,16.3 -11.9,16.3 z"
     id="path153" />
  <path
     d="m 337.7,77.5 h 16.5 l 7.1,-10.7 c 1.9,-3 3.2,-5.1 4.8,-8.3 h 0.8 c 1.7,3.1 2.5,4.7 4.7,8.1 l 7.3,10.9 h 16.5 V 76 L 376.5,50.5 395.1,26.4 v -1.6 h -16.5 l -6.6,9.6 c -2,3 -3.4,5.2 -5.2,8.5 H 366 c -1.6,-3.3 -3.2,-5.9 -5.1,-8.6 l -6.5,-9.5 h -16.5 v 1.6 L 356.3,50.9 337.7,76 Z"
     id="path155" />
  <text
     xml:space="preserve"
     style="font-style:normal;font-variant:normal;font-weight:normal;font-stretch:normal;font-size:96px;line-height:1.25;font-family:'Hiragino Kaku Gothic Std';-inkscape-font-specification:'Hiragino Kaku Gothic Std';fill:#000000;fill-opacity:1;stroke:none"
     x="392.66446"
     y="84.69722"
     id="text4106"><tspan
       sodipodi:role="line"
       id="tspan4104"
       x="392.66446"
       y="84.69722"
       style="fill:#ffffff">日</tspan></text>
</svg>
