<?xml version="1.0" encoding="UTF-8" standalone="no"?>
<!-- Generator: Adobe Illustrator 24.1.2, SVG Export Plug-In . SVG Version: 6.00 Build 0)  -->

<svg
   version="1.1"
   id="Layer_1"
   x="0px"
   y="0px"
   viewBox="0 0 1615.8 162.3"
   style="enable-background:new 0 0 1615.8 162.3;"
   xml:space="preserve"
   sodipodi:docname="bcbc03fa9a7917595aac.svg"
   inkscape:version="1.1.2 (b8e25be833, 2022-02-05)"
   xmlns:inkscape="http://www.inkscape.org/namespaces/inkscape"
   xmlns:sodipodi="http://sodipodi.sourceforge.net/DTD/sodipodi-0.dtd"
   xmlns="http://www.w3.org/2000/svg"
   xmlns:svg="http://www.w3.org/2000/svg"><defs
   id="defs53" /><sodipodi:namedview
   id="namedview51"
   pagecolor="#000000"
   bordercolor="#ffffff"
   borderopacity="0"
   inkscape:pageshadow="2"
   inkscape:pageopacity="1"
   inkscape:pagecheckerboard="0"
   showgrid="false"
   inkscape:showpageshadow="true"
   showborder="true"
   inkscape:zoom="1.0695438"
   inkscape:cx="870.46456"
   inkscape:cy="71.99331"
   inkscape:window-width="2560"
   inkscape:window-height="1377"
   inkscape:window-x="-8"
   inkscape:window-y="-8"
   inkscape:window-maximized="1"
   inkscape:current-layer="Layer_1" />
<style
   type="text/css"
   id="style2">
	.st0{fill:#4254F4;}
	.st1{fill:#FFFFFF;}
</style>
<g
   id="g48">
	<g
   transform="matrix(1,0,0,1,-105.42,-12.32)"
   id="g28">
		<g
   id="g26">
			<g
   id="g24">
				<path
   class="st0"
   d="M154.5,52.4h-25.1v88.5c0,11.3-3.8,15.7-9.4,15.7c-4.5,0-8.6-0.9-12.2-1.7l-2.4,17.3      c5.1,1.4,11.2,2.4,19.2,2.4c20.8,0,30-12.4,30-32.8V52.4H154.5z M129.4,38.8h25.3V17.4h-25.3V38.8z"
   id="path4" />
				<path
   class="st0"
   d="M188,82.5c-0.2-1.4-0.3-3-0.3-4c0-7.3,5.1-10.6,15.5-10.6c10.5,0,15.2,5.2,15.2,12.7v6.8      c-42.8,0.9-57.1,11.3-57.1,29.3c0,15.5,11,23,27.8,23c18.5,0,29-10.1,31.9-13.6h1c0.3,6.5,3.1,13.6,15.9,13.6      c5.1,0,10.5-1,14.3-2.3l-1-16.8c-1.4,0.5-3,0.7-4.4,0.7c-2.4,0-3.8-1.4-3.8-4.9V81.7c0-16.1-8.2-31.1-38.6-31.1      c-27.1,0-39.4,10.5-39.4,26.9c0,1.9,0.2,4.4,0.5,6.3L188,82.5z M185.6,113.5c0-7.3,7.2-12.6,32.8-13.1V113      c-4.9,5.6-13.1,9.4-21.1,9.4C189.8,122.4,185.6,119.8,185.6,113.5z"
   id="path6" />
				<path
   class="st0"
   d="M251.9,95.4c0,28.1,15,44.3,45,44.3c35.8,0,39.4-21.3,39.4-29.8c0-1.2,0-2.8-0.3-4.5l-25-0.3      c0.3,1,0.3,2.1,0.3,2.8c0,5.2-2.8,14-15.2,14s-18.7-9.3-18.7-26.4c0-20.1,7-26.7,18.7-26.7c12.4,0,15.2,8.9,15.2,14      c0,0.9,0,1.9-0.3,3l25-0.5c0.3-1.9,0.3-3.1,0.3-4.5c0-9.3-3.7-29.8-39.4-29.8C265.5,50.7,251.9,71.1,251.9,95.4z"
   id="path8" />
				<path
   class="st0"
   d="M343.7,138h25.1v-26.4c3.1-1.9,10.1-6.6,13.4-9.3c3.8,4.2,19.7,32.5,23.4,35.6h27.1v-3      c-4.7-3.8-27.2-40.8-31.8-46.3c8.4-7.2,21.1-19.9,30-33.3v-3h-27.4c-8.4,13.4-22.7,26.9-34.7,35.1V12.3h-25.1V138z"
   id="path10" />
				<path
   class="st0"
   d="M436.4,138h18.9l3.7-9.4h1c4,4.4,11.5,11.2,26.7,11.2c19.2,0,36.5-12.6,36.5-44.7      c0-32.5-17.8-44.3-36.5-44.3c-11.9,0-19.9,4.9-24.1,9.8h-1V12.3h-25.1V138H436.4z M461.5,76.2c3.8-4.4,9.9-7.5,15.9-7.5      c11.2,0,20.1,5.8,20.1,26.4c0,20.4-8.4,26.7-20.1,26.7c-7.2,0-12.7-3.3-15.9-7.3V76.2z"
   id="path12" />
				<path
   class="st0"
   d="M525.8,95.4c0,26.9,14.7,44.3,45,44.3c30,0,45-17.5,45-44.3c0-27.1-15-44.7-45-44.7      C540.4,50.7,525.8,68.3,525.8,95.4z M570.8,121.7c-12,0-19.5-6.8-19.5-26.4c0-19.9,7.5-26.7,19.5-26.7      c11.7,0,19.4,6.8,19.4,26.7C590.2,114.9,582.5,121.7,570.8,121.7z"
   id="path14" />
				<path
   id="path16"
   class="st0"
   transform="translate(105.42,12.32)"
   d="m 508.38086,40.080078 v 2.59961 l 29.79883,39.800781 -30.5,40.699221 -0.0996,2.5 h 26.80078 l 11.5,-17.29883 c 3.1,-4.9 5.19844,-8.20039 7.89844,-13.400391 h 1.20117 c 2.8,5.100001 3.99922,7.699611 7.69922,13.099611 l 11.90039,17.59961 H 601.2793 V 123.2793 L 570.58008,81.880859 600.7793,42.779297 v -2.699219 h -26.69922 l -10.59961,15.5 c -3.3,4.9 -5.60039,8.400781 -8.40039,13.800781 h -1.19922 c -2.6,-5.4 -5.20117,-9.6 -8.20117,-14 L 535.08008,40.080078 Z" />
				
				
				
			</g>
		</g>
	</g>
	
	
	
	
	
	
	
	
	
</g>
<text
   xml:space="preserve"
   style="font-style:normal;font-variant:normal;font-weight:normal;font-stretch:normal;font-size:133.333px;line-height:1.25;font-family:'Hiragino Kaku Gothic Std';-inkscape-font-specification:'Hiragino Kaku Gothic Std';fill:#4254f4;fill-opacity:1;stroke:none"
   x="608.67065"
   y="130.89693"
   id="text9018"><tspan
     sodipodi:role="line"
     id="tspan9016"
     x="608.67065"
     y="130.89693"
     style="font-size:133.333px">日</tspan></text><text
   xml:space="preserve"
   style="font-size:133.333px;line-height:1.25;font-family:'Hiragino Kaku Gothic Std';-inkscape-font-specification:'Hiragino Kaku Gothic Std';fill:#ffffff;fill-opacity:1"
   x="814.36591"
   y="130.89691"
   id="text31597"><tspan
     sodipodi:role="line"
     id="tspan31595"
     x="814.36591"
     y="130.89691"
     style="font-style:normal;font-variant:normal;font-weight:800;font-stretch:normal;font-family:'Hiragino Kaku Gothic Std';-inkscape-font-specification:'Hiragino Kaku Gothic Std Ultra-Bold';baseline-shift:baseline">管理者事務所</tspan></text></svg>
